<svg width="80" height="80" viewBox="0 0 80 80" fill="none" xmlns="http://www.w3.org/2000/svg">
<path opacity="0.3" d="M80 40C80 62.0914 62.0914 80 40 80C17.9086 80 0 62.0914 0 40C0 17.9086 17.9086 0 40 0C62.0914 0 80 17.9086 80 40ZM10.9071 40C10.9071 56.0675 23.9325 69.0929 40 69.0929C56.0675 69.0929 69.0929 56.0675 69.0929 40C69.0929 23.9325 56.0675 10.9071 40 10.9071C23.9325 10.9071 10.9071 23.9325 10.9071 40Z" fill="#DBB2FF"/>
<circle cx="40" cy="40" r="29" fill="#30009C"/>
<path d="M45.5499 25.1421L37.9533 30.0182L38.7233 30.4398L45.4819 26.1015L56.9455 32.595L50.3702 36.8155L50.6905 36.9908V37.5258L55.8407 34.2199L56.9216 34.8322L50.6904 38.8319V39.7477L55.7398 36.5065L56.9216 37.1761L50.6904 41.1757V42.0915L55.7398 38.8504L56.9216 39.5199L50.6904 43.5195V44.4354L58.5055 39.419L56.5658 38.3204L58.5054 37.0753L56.5657 35.9765L58.5053 34.7315L56.6665 33.6898L58.5291 32.4941L45.5499 25.1421ZM47.977 28.6374C46.3334 29.4621 44.1442 29.6016 42.6028 28.9798L39.5895 30.914L49.5038 36.3413L52.3618 34.5069C51.236 33.6182 51.3298 32.2921 52.5916 31.2515L47.977 28.6374ZM37.7747 31.5237L32.2522 35.1247L42.8467 41.2237L42.9506 41.1572C43.1459 41.0315 43.4217 40.8533 43.7508 40.6406C44.4086 40.2154 45.2791 39.6515 46.1472 39.089C47.3973 38.2789 48.0416 37.8609 48.6406 37.4723L37.7747 31.5237ZM46.7955 31.6151H46.7958C47.0456 31.6166 47.2747 31.6701 47.4458 31.767C47.5453 31.8234 47.6226 31.8929 47.673 31.9717C47.7235 32.0504 47.7462 32.1368 47.7399 32.2259C47.7336 32.315 47.6984 32.4051 47.6362 32.491C47.5741 32.5769 47.4863 32.6569 47.3778 32.7265C47.2694 32.7962 47.1424 32.854 47.0041 32.8967C46.8658 32.9395 46.7189 32.9663 46.5718 32.9756C46.4247 32.985 46.2804 32.9767 46.1469 32.9513C46.0134 32.9258 45.8935 32.8837 45.794 32.8273C45.593 32.7135 45.4872 32.5484 45.5 32.3685C45.5127 32.1886 45.6429 32.0085 45.862 31.8679C45.9863 31.7881 46.1349 31.7239 46.2966 31.6801C46.4582 31.6363 46.6288 31.6141 46.7955 31.6151ZM29.7312 35.2959L21.4965 40.5815L23.3353 41.6231L21.4727 42.8188L23.4123 43.9175L21.4727 45.1626L23.4123 46.2613L21.4727 47.5065L34.452 54.8585L42.2882 49.8283V48.9127L34.52 53.899L23.0564 47.4054L24.1701 46.6906L34.452 52.5146L42.2882 47.4846V46.569L34.52 51.5552L23.0564 45.0617L24.1701 44.3469L34.452 50.1708L42.2882 45.1408V44.2252L34.52 49.2115L23.0564 42.7179L24.0931 42.0523L34.4759 47.9336L42.2882 42.9189V42.5244L41.8601 42.2779L34.5437 46.974L23.0804 40.4806L30.4835 35.7287L29.7312 35.2957L29.7312 35.2959ZM31.3297 36.2162L27.6641 38.569C28.7898 39.4576 28.6961 40.7837 27.4342 41.8244L32.0489 44.4385C33.6924 43.6137 35.8815 43.4743 37.4229 44.096L41.0139 41.791L31.3295 36.2162L31.3297 36.2162ZM49.2841 38.7311C48.6557 39.1387 48.1015 39.4984 46.912 40.2692C46.1131 40.7871 45.3139 41.3047 44.5144 41.8218C44.1849 42.0347 43.9085 42.2132 43.7114 42.3399C43.7044 42.3446 43.7015 42.3462 43.6946 42.3506V49.0634L49.2842 45.3065L49.2841 38.7311ZM33.5818 40.0967C33.8317 40.0983 34.0608 40.1519 34.2318 40.2488C34.4328 40.3627 34.5386 40.5277 34.5258 40.7076C34.5131 40.8875 34.3829 41.0676 34.1638 41.2082C33.9448 41.3487 33.6549 41.4383 33.358 41.4572C33.061 41.4761 32.7812 41.4228 32.5802 41.309C32.3792 41.1951 32.2735 41.0301 32.2862 40.8502C32.299 40.6702 32.4292 40.4902 32.6482 40.3496C32.7726 40.2697 32.9212 40.2055 33.0828 40.1618C33.2445 40.118 33.415 40.0958 33.5818 40.0968V40.0967Z" fill="white"/>
</svg>
