<svg width="80" height="80" viewBox="0 0 80 80" fill="none" xmlns="http://www.w3.org/2000/svg">
<path opacity="0.3" d="M80 40C80 62.0914 62.0914 80 40 80C17.9086 80 0 62.0914 0 40C0 17.9086 17.9086 0 40 0C62.0914 0 80 17.9086 80 40ZM10.9071 40C10.9071 56.0675 23.9325 69.0929 40 69.0929C56.0675 69.0929 69.0929 56.0675 69.0929 40C69.0929 23.9325 56.0675 10.9071 40 10.9071C23.9325 10.9071 10.9071 23.9325 10.9071 40Z" fill="#DBB2FF"/>
<circle cx="40" cy="40" r="29" fill="#30009C"/>
<path d="M31.666 31.6667V28.3334C31.666 27.3682 31.9454 26.4236 32.4705 25.6137C32.9955 24.8038 33.7437 24.1632 34.6248 23.7691C35.5059 23.3751 36.4823 23.2445 37.436 23.3931C38.3896 23.5418 39.2799 23.9633 39.9993 24.6067C40.7188 23.9633 41.6091 23.5418 42.5627 23.3931C43.5164 23.2445 44.4928 23.3751 45.3739 23.7691C46.255 24.1632 47.0032 24.8038 47.5282 25.6137C48.0533 26.4236 48.3327 27.3682 48.3327 28.3334V31.6667H50.8327C51.4957 31.6667 52.1316 31.9301 52.6004 32.399C53.0693 32.8678 53.3327 33.5037 53.3327 34.1667V50.8417C53.3327 52.3866 52.719 53.8682 51.6266 54.9606C50.5342 56.053 49.0526 56.6667 47.5077 56.6667H33.3327C31.5646 56.6667 29.8689 55.9643 28.6186 54.7141C27.3684 53.4639 26.666 51.7682 26.666 50.0001V34.1667C26.666 33.5037 26.9294 32.8678 27.3982 32.399C27.8671 31.9301 28.503 31.6667 29.166 31.6667H31.666ZM42.7244 54.1667C42.0445 53.1914 41.6808 52.0306 41.6827 50.8417V34.1667H29.166V50.0001C29.166 50.5472 29.2738 51.089 29.4832 51.5946C29.6926 52.1001 29.9995 52.5594 30.3864 52.9463C30.7733 53.3332 31.2326 53.6402 31.7382 53.8496C32.2437 54.0589 32.7855 54.1667 33.3327 54.1667H42.7244ZM39.166 31.6667V28.3334C39.166 27.6703 38.9026 27.0345 38.4338 26.5656C37.9649 26.0968 37.3291 25.8334 36.666 25.8334C36.003 25.8334 35.3671 26.0968 34.8982 26.5656C34.4294 27.0345 34.166 27.6703 34.166 28.3334V31.6667H39.166ZM41.666 31.6667H45.8327V28.3334C45.8327 27.8188 45.674 27.3167 45.3781 26.8957C45.0822 26.4746 44.6636 26.1552 44.1794 25.9809C43.6952 25.8066 43.169 25.786 42.6726 25.9219C42.1763 26.0577 41.7339 26.3435 41.406 26.7401C41.5743 27.2401 41.666 27.7767 41.666 28.3334V31.6667ZM44.1827 50.8417C44.1827 51.7236 44.533 52.5693 45.1566 53.1929C45.7801 53.8164 46.6258 54.1667 47.5077 54.1667C48.3895 54.1667 49.2353 53.8164 49.8588 53.1929C50.4824 52.5693 50.8327 51.7236 50.8327 50.8417V34.1667H44.1827V50.8417Z" fill="white"/>
</svg>
