<svg width="80" height="80" viewBox="0 0 80 80" fill="none" xmlns="http://www.w3.org/2000/svg">
<path opacity="0.3" d="M80 40C80 62.0914 62.0914 80 40 80C17.9086 80 0 62.0914 0 40C0 17.9086 17.9086 0 40 0C62.0914 0 80 17.9086 80 40ZM10.9071 40C10.9071 56.0675 23.9325 69.0929 40 69.0929C56.0675 69.0929 69.0929 56.0675 69.0929 40C69.0929 23.9325 56.0675 10.9071 40 10.9071C23.9325 10.9071 10.9071 23.9325 10.9071 40Z" fill="#DBB2FF"/>
<circle cx="40" cy="40" r="29" fill="white"/>
<path d="M39.9993 40.8335C38.4523 40.8335 36.9685 41.4481 35.8746 42.542C34.7806 43.636 34.166 45.1197 34.166 46.6668C34.166 48.2139 34.7806 49.6977 35.8746 50.7916C36.9685 51.8856 38.4523 52.5002 39.9993 52.5002C41.5464 52.5002 43.0302 51.8856 44.1241 50.7916C45.2181 49.6977 45.8327 48.2139 45.8327 46.6668C45.8327 45.1197 45.2181 43.636 44.1241 42.542C43.0302 41.4481 41.5464 40.8335 39.9993 40.8335ZM37.4993 46.6668C37.4993 46.0038 37.7627 45.3679 38.2316 44.8991C38.7004 44.4302 39.3363 44.1668 39.9993 44.1668C40.6624 44.1668 41.2983 44.4302 41.7671 44.8991C42.236 45.3679 42.4993 46.0038 42.4993 46.6668C42.4993 47.3299 42.236 47.9658 41.7671 48.4346C41.2983 48.9034 40.6624 49.1668 39.9993 49.1668C39.3363 49.1668 38.7004 48.9034 38.2316 48.4346C37.7627 47.9658 37.4993 47.3299 37.4993 46.6668Z" fill="#673BB7"/>
<path d="M49.21 28.5265L43.9117 21.0981L24.43 36.6615L23.35 36.6498V36.6665H22.5V56.6665H57.5V36.6665H55.8967L52.7067 27.3348L49.21 28.5265ZM52.375 36.6665H35.6617L48.11 32.4231L50.6467 31.6115L52.375 36.6665ZM45.9167 29.6498L33.0667 34.0298L43.2433 25.8998L45.9167 29.6498ZM25.8333 50.2815V43.0481C26.5365 42.799 27.1752 42.396 27.7028 41.8687C28.2305 41.3413 28.6338 40.7028 28.8833 39.9998H51.1167C51.3661 40.7031 51.7694 41.3418 52.297 41.8695C52.8247 42.3971 53.4634 42.8004 54.1667 43.0498V50.2831C53.4634 50.5326 52.8247 50.9358 52.297 51.4635C51.7694 51.9911 51.3661 52.6299 51.1167 53.3331H28.8867C28.637 52.6293 28.2333 51.99 27.705 51.4621C27.1768 50.9341 26.5373 50.5308 25.8333 50.2815Z" fill="#30009C"/>
</svg>
